<svg width="31" height="27" viewBox="0 0 31 27" fill="none" xmlns="http://www.w3.org/2000/svg">
    <path d="M25.1429 1.17857C25.1429 1.04315 25.1864 0.931919 25.2734 0.844865C25.3605 0.757811 25.4717 0.714284 25.6071 0.714284H29.7857C30.0372 0.714284 30.2548 0.806174 30.4386 0.989954C30.6224 1.17373 30.7143 1.39137 30.7143 1.64286V5.82143C30.7143 5.95684 30.6708 6.06808 30.5837 6.15513C30.4967 6.24219 30.3854 6.28571 30.25 6.28571H29.3214C29.186 6.28571 29.0748 6.24219 28.9877 6.15513C28.9007 6.06808 28.8571 5.95684 28.8571 5.82143V3.87723L25.1719 7.57701C25.907 8.49591 26.4245 9.53088 26.7243 10.6819C27.0339 11.833 27.0822 13.0275 26.8694 14.2656C26.5599 16.0067 25.7619 17.506 24.4754 18.7634C23.1987 20.0208 21.6849 20.7801 19.9342 21.0413C17.7772 21.3702 15.7991 20.9349 14 19.7355C12.8683 20.49 11.6302 20.9397 10.2857 21.0848V23H11.6786C11.814 23 11.9252 23.0435 12.0123 23.1306C12.0993 23.2176 12.1429 23.3289 12.1429 23.4643V24.3929C12.1429 24.5283 12.0993 24.6395 12.0123 24.7266C11.9252 24.8136 11.814 24.8571 11.6786 24.8571H10.2857V26.25C10.2857 26.3854 10.2422 26.4967 10.1551 26.5837C10.0681 26.6708 9.95685 26.7143 9.82143 26.7143H8.89286C8.75744 26.7143 8.64621 26.6708 8.55915 26.5837C8.4721 26.4967 8.42857 26.3854 8.42857 26.25V24.8571H7.03571C6.9003 24.8571 6.78906 24.8136 6.70201 24.7266C6.61496 24.6395 6.57143 24.5283 6.57143 24.3929V23.4643C6.57143 23.3289 6.61496 23.2176 6.70201 23.1306C6.78906 23.0435 6.9003 23 7.03571 23H8.42857V21.0848C6.92932 20.9204 5.57515 20.3932 4.36607 19.5033C3.16667 18.6038 2.26228 17.4528 1.6529 16.0502C1.0532 14.6477 0.864583 13.1629 1.08705 11.596C1.32887 9.7872 2.09784 8.22991 3.39397 6.92411C4.69978 5.60863 6.25223 4.81064 8.05134 4.53013C10.218 4.20126 12.2009 4.63653 14 5.83594C15.4122 4.89769 16.9598 4.42857 18.6429 4.42857C20.5871 4.42857 22.3233 5.03795 23.8516 6.2567L27.5513 2.57143H25.6071C25.4717 2.57143 25.3605 2.5279 25.2734 2.44085C25.1864 2.35379 25.1429 2.24256 25.1429 2.10714V1.17857ZM14 17.327C15.2381 16.0599 15.8571 14.5461 15.8571 12.7857C15.8571 11.0253 15.2381 9.51153 14 8.24442C12.7619 9.51153 12.1429 11.0253 12.1429 12.7857C12.1429 14.5461 12.7619 16.0599 14 17.327ZM4.75781 8.20089C3.4907 9.46801 2.85714 10.9963 2.85714 12.7857C2.85714 14.5751 3.4907 16.1083 4.75781 17.385C6.0346 18.6522 7.56771 19.2857 9.35714 19.2857C10.4888 19.2857 11.5432 19.01 12.5201 18.4587C11.0305 16.8434 10.2857 14.9524 10.2857 12.7857C10.2857 10.619 11.0305 8.72805 12.5201 7.11272C11.5432 6.56138 10.4888 6.28571 9.35714 6.28571C7.56771 6.28571 6.0346 6.92411 4.75781 8.20089ZM18.6429 19.2857C20.4323 19.2857 21.9606 18.6522 23.2277 17.385C24.5045 16.1083 25.1429 14.5751 25.1429 12.7857C25.1429 10.9963 24.5045 9.46801 23.2277 8.20089C21.9606 6.92411 20.4323 6.28571 18.6429 6.28571C17.5112 6.28571 16.4568 6.56138 15.4799 7.11272C16.9695 8.72805 17.7143 10.619 17.7143 12.7857C17.7143 14.9524 16.9695 16.8434 15.4799 18.4587C16.4568 19.01 17.5112 19.2857 18.6429 19.2857Z" fill="#4A4A4A"/>
</svg>
